#!OML:ASF G:\JayActor3\Patient Classification 1\Patient 1\Session 5\male.ASF
:FULLY-SPECIFIED
:DEGREES
943
root -25.2894 16.6833 -15.4492 -3.95345 -140.857 -4.74877
lowerback 9.29407 -0.549449 -2.31426
upperback 1.94489 -1.21811 -2.71779
thorax -3.20517 -0.663543 -1.36596
lowerneck 2.15408 -0.270625 1.81794
upperneck 4.31308 -0.480442 1.19842
head 0.958361 -0.245751 0.0655417
rclavicle -6.76489e-015 -5.56597e-015
rhumerus -34.034 -18.4965 -80.9215
rradius 13.7914
rwrist 26.0171
rhand -17.1677 -5.21325
rfingers 7.12502
rthumb 9.07351 -34.9981
lclavicle -6.76489e-015 -5.56597e-015
lhumerus -29.2936 5.62521 86.2294
lradius 8.03628
lwrist 25.3707
lhand -27.5025 17.9891
lfingers 7.12502
lthumb -0.905408 47.967
rfemur -29.5162 9.59342 16.5984
rtibia 45.3184
rfoot -22.3695 -15.4124
rtoes -3.61483
lfemur 4.30984 4.90417 -28.3614
ltibia 21.5486
lfoot -13.0094 -2.43996
ltoes 5.09795
944
root -25.4777 16.7012 -15.6781 -3.76486 -140.867 -4.8957
lowerback 8.79808 -0.511266 -2.24985
upperback 2.02026 -1.14924 -2.89783
thorax -2.8563 -0.634931 -1.60262
lowerneck 1.95886 -0.301637 2.18673
upperneck 4.4153 -0.526956 1.18949
head 1.02208 -0.262581 0.00165266
rclavicle 2.17483e-014 -2.42517e-014
rhumerus -34.2575 -19.5654 -80.5706
rradius 13.6851
rwrist 26.805
rhand -17.4355 -5.09557
rfingers 7.12502
rthumb 8.81511 -34.8915
lclavicle 2.17483e-014 -2.42517e-014
lhumerus -28.9247 5.11043 86.1333
lradius 7.92643
lwrist 25.5378
lhand -27.2206 18.089
lfingers 7.12502
lthumb -0.633172 48.0678
rfemur -29.08 10.6519 16.0683
rtibia 39.8509
rfoot -22.5744 -15.6929
rtoes -6.42238
lfemur 5.3703 5.52446 -28.3487
ltibia 21.4034
lfoot -12.7078 -2.74669
ltoes 4.8518
945
root -25.6617 16.7147 -15.9101 -3.5342 -140.769 -5.08028
lowerback 8.2925 -0.540133 -2.28843
upperback 2.07785 -1.17586 -3.04843
thorax -2.51893 -0.651971 -1.73995
lowerneck 1.84765 -0.304834 2.42599
upperneck 4.39827 -0.532477 1.20422
head 1.03517 -0.26121 -0.0333947
rclavicle -4.16702e-014 -2.82274e-014
rhumerus -34.4435 -20.2357 -80.3968
rradius 13.6178
rwrist 27.3216
rhand -17.5802 -4.99147
rfingers 7.12502
rthumb 8.67545 -34.7932
lclavicle -4.16702e-014 -2.82274e-014
lhumerus -28.644 4.7304 86.0237
lradius 7.77613
lwrist 25.7052
lhand -27.062 18.2176
lfingers 7.12502
lthumb -0.479992 48.1968
rfemur -28.6507 11.9171 15.4181
rtibia 34.7911
rfoot -22.6876 -15.9331
rtoes -9.09448
lfemur 6.13515 6.09746 -28.2922
ltibia 21.7419
lfoot -12.463 -3.10279
ltoes 3.97755
946
root -25.8437 16.7223 -16.1426 -3.22959 -140.554 -5.33901
lowerback 7.7999 -0.603817 -2.45836
upperback 2.09969 -1.257 -3.16521
thorax -2.22316 -0.69455 -1.7634
lowerneck 1.81041 -0.320297 2.5951
upperneck 4.29781 -0.548665 1.19591
head 1.00987 -0.267103 -0.0636113
rclavicle 1.23706e-013 -3.18055e-015
rhumerus -34.638 -20.6386 -80.2897
rradius 13.5858
rwrist 27.5759
rhand -17.594 -4.9078
rfingers 7.12502
rthumb 8.66213 -34.7101
lclavicle 1.23706e-013 -3.18055e-015
lhumerus -28.4629 4.40563 85.9719
lradius 7.58728
lwrist 25.8727
lhand -27.0443 18.3628
lfingers 7.12502
lthumb -0.462873 48.342
rfemur -28.3096 13.1969 14.6463
rtibia 30.4037
rfoot -22.7663 -16.0666
rtoes -11.3361
lfemur 6.52837 6.53554 -28.2464
ltibia 22.6779
lfoot -12.1761 -3.63408
ltoes 2.76284
947
root -26.0252 16.7237 -16.3738 -2.86015 -140.207 -5.6795
lowerback 7.36404 -0.718015 -2.77903
upperback 2.06994 -1.4143 -3.22321
thorax -2.00777 -0.773142 -1.63487
lowerneck 1.86602 -0.336907 2.64867
upperneck 4.14855 -0.561616 1.16829
head 0.953985 -0.273978 -0.0802848
rclavicle 1.41758e-014 1.11319e-014
rhumerus -34.8577 -20.758 -80.1896
rradius 13.5798
rwrist 27.5762
rhand -17.4846 -4.89142
rfingers 7.12502
rthumb 8.76771 -34.6893
lclavicle 1.41758e-014 1.11319e-014
lhumerus -28.4223 4.18893 86.0129
lradius 7.38852
lwrist 26.0307
lhand -27.1593 18.5324
lfingers 7.12502
lthumb -0.573967 48.5113
rfemur -28.0606 14.1825 13.855
rtibia 26.8933
rfoot -22.8054 -15.8953
rtoes -12.9781
lfemur 6.5201 6.75932 -28.2353
ltibia 24.2916
lfoot -11.8217 -4.32729
ltoes 1.16916
948
root -26.2068 16.7164 -16.6022 -2.49478 -139.737 -6.05384
lowerback 7.00642 -0.91438 -3.21828
upperback 2.01262 -1.68551 -3.18946
thorax -1.85696 -0.906605 -1.3363
lowerneck 1.98886 -0.319264 2.50108
upperneck 3.98849 -0.527715 1.14363
head 0.88423 -0.260246 -0.0627324
rclavicle 4.23287e-014 2.78299e-015
rhumerus -35.042 -20.562 -80.0781
rradius 13.5749
rwrist 27.4091
rhand -17.3027 -4.94208
rfingers 7.12502
rthumb 8.94328 -34.7325
lclavicle 4.23287e-014 2.78299e-015
lhumerus -28.5154 4.19685 86.1511
lradius 7.21405
lwrist 26.1837
lhand -27.4079 18.7032
lfingers 7.12502
lthumb -0.81409 48.6814
rfemur -27.8319 14.5119 13.2674
rtibia 24.3275
rfoot -22.6363 -15.3572
rtoes -14.5644
lfemur 6.12663 6.76291 -28.2158
ltibia 26.6181
lfoot -11.3403 -5.19679
ltoes -0.80309
949
root -26.3881 16.6969 -16.8271 -2.25147 -139.204 -6.39155
lowerback 6.80201 -1.08481 -3.64168
upperback 1.96923 -1.92725 -3.13871
thorax -1.77249 -1.02567 -1.03139
lowerneck 2.09936 -0.350948 2.38449
upperneck 3.8606 -0.561524 1.11075
head 0.826221 -0.279717 -0.0530488
rclavicle 4.15336e-014 7.95139e-016
rhumerus -35.2526 -20.5068 -79.8788
rradius 13.5631
rwrist 27.2688
rhand -17.1299 -5.00372
rfingers 7.12502
rthumb 9.10996 -34.787
lclavicle 4.15336e-014 7.95139e-016
lhumerus -28.646 4.09677 86.3698
lradius 7.03703
lwrist 26.3492
lhand -27.7683 18.839
lfingers 7.12502
lthumb -1.16215 48.8156
rfemur -27.4865 14.0763 13.0719
rtibia 22.6394
rfoot -22.0942 -14.4237
rtoes -16.1178
lfemur 5.43654 6.58929 -28.1195
ltibia 29.6082
lfoot -10.6453 -6.23753
ltoes -2.9529
950
root -26.5675 16.6637 -17.0481 -2.27285 -138.681 -6.59484
lowerback 6.80089 -1.21461 -3.95011
upperback 1.98545 -2.11802 -3.07658
thorax -1.7401 -1.1206 -0.780307
lowerneck 2.14512 -0.421271 2.29683
upperneck 3.78867 -0.651068 1.09031
head 0.796026 -0.325884 -0.0446795
rclavicle 3.87879e-014 -7.55382e-015
rhumerus -35.429 -20.599 -79.6516
rradius 13.5321
rwrist 27.2102
rhand -17.0106 -5.06847
rfingers 7.12502
rthumb 9.22512 -34.8467
lclavicle 3.87879e-014 -7.55382e-015
lhumerus -28.7657 3.89697 86.6243
lradius 6.86833
lwrist 26.547
lhand -28.1505 18.9414
lfingers 7.12502
lthumb -1.53125 48.9156
rfemur -26.8862 13.122 13.3246
rtibia 21.6582
rfoot -21.1668 -13.2501
rtoes -17.3114
lfemur 4.5715 6.32221 -27.8453
ltibia 33.1441
lfoot -9.64682 -7.46777
ltoes -4.9218
951
root -26.7446 16.6146 -17.2659 -2.64704 -138.235 -6.63024
lowerback 7.05643 -1.32349 -4.11936
upperback 2.06949 -2.28741 -2.99705
thorax -1.78315 -1.20593 -0.584536
lowerneck 2.14995 -0.474423 2.16577
upperneck 3.78352 -0.723139 1.10891
head 0.79358 -0.363165 -0.0176819
rclavicle 6.45149e-014 5.56597e-015
rhumerus -35.5361 -20.6422 -79.4974
rradius 13.4856
rwrist 27.1918
rhand -16.9488 -5.12562
rfingers 7.12502
rthumb 9.28474 -34.9012
lclavicle 6.45149e-014 5.56597e-015
lhumerus -28.8987 3.72437 86.859
lradius 6.72522
lwrist 26.8012
lhand -28.5115 19.0179
lfingers 7.12502
lthumb -1.87995 48.9894
rfemur -25.9622 12.0616 13.9104
rtibia 21.2211
rfoot -20.0028 -12.0294
rtoes -17.5728
lfemur 3.67944 6.04512 -27.3555
ltibia 37.0419
lfoot -8.34761 -8.85918
ltoes -6.33695
952
root -26.9178 16.5528 -17.4806 -3.35333 -137.904 -6.50616
lowerback 7.54964 -1.33799 -4.09879
upperback 2.22401 -2.33819 -2.97362
thorax -1.89661 -1.23486 -0.555519
lowerneck 2.10689 -0.578433 2.14846
upperneck 3.83273 -0.86752 1.17775
head 0.815507 -0.434877 0.00561582
rclavicle 1.29905e-014 -3.18055e-014
rhumerus -35.6318 -20.848 -79.4376
rradius 13.4483
rwrist 27.2325
rhand -16.9453 -5.15726
rfingers 7.12502
rthumb 9.28817 -34.9327
lclavicle 1.29905e-014 -3.18055e-014
lhumerus -28.9866 3.33614 87.0429
lradius 6.56189
lwrist 27.1546
lhand -28.7735 19.0612
lfingers 7.12502
lthumb -2.13293 49.0303
rfemur -24.8061 11.2127 14.6611
rtibia 21.2404
rfoot -18.5022 -11.0512
rtoes -16.3646
lfemur 2.81998 5.82413 -26.6445
ltibia 41.1071
lfoot -6.78753 -10.3506
ltoes -7.00472
953
root -27.0868 16.4852 -17.6921 -4.28864 -137.685 -6.26816
lowerback 8.22171 -1.32126 -3.9603
upperback 2.3977 -2.35187 -2.96567
thorax -2.09508 -1.24581 -0.606099
lowerneck 2.12318 -0.670757 2.10263
upperneck 3.88695 -0.998497 1.30284
head 0.829785 -0.500722 0.0508399
rclavicle 2.37765e-015 -4.25399e-014
rhumerus -35.694 -20.8846 -79.5487
rradius 13.4268
rwrist 27.2069
rhand -16.9964 -5.15603
rfingers 7.12502
rthumb 9.23885 -34.9336
lclavicle 2.37765e-015 -4.25399e-014
lhumerus -29.0804 2.94229 87.18
lradius 6.36565
lwrist 27.6274
lhand -28.9215 19.1128
lfingers 7.12502
lthumb -2.27587 49.0805
rfemur -23.6195 10.7505 15.4172
rtibia 21.7269
rfoot -16.4996 -10.4455
rtoes -14.5019
lfemur 1.98958 5.66397 -25.7606
ltibia 45.1589
lfoot -5.22267 -11.7998
ltoes -7.29576
